<?xml version="1.0" encoding="UTF-8"?>
<svg width="175px" height="23px" viewBox="0 0 175 23" version="1.1" xmlns="http://www.w3.org/2000/svg" xmlns:xlink="http://www.w3.org/1999/xlink">
    <!-- Generator: Sketch 52.2 (67145) - http://www.bohemiancoding.com/sketch -->
    <title>ED logo online standaard</title>
    <desc>Created with Sketch.</desc>
    <defs>
        <polygon id="path-1" points="0.0299145299 0.27554692 11.2064815 0.27554692 11.2064815 13.0146805 0.0299145299 13.0146805"></polygon>
    </defs>
    <g id="Symbols" stroke="none" stroke-width="1" fill="none" fill-rule="evenodd">
        <g id="topheader" transform="translate(-36.000000, -41.000000)">
            <g id="ED-logo-online-standaard" transform="translate(36.000000, 41.000000)">
                <g id="Group-3" transform="translate(0.000000, 4.533679)">
                    <mask id="mask-2" fill="white">
                        <use xlink:href="#path-1"></use>
                    </mask>
                    <g id="Clip-2"></g>
                    <path d="M6.34537037,13.0146805 C4.25733618,13.0146805 2.677849,12.4771877 1.60690883,11.4032096 C0.535470085,10.3287277 0,8.74445884 0,6.65090674 C0,4.55735463 0.537464387,2.97107081 1.61239316,1.89306275 C2.68782051,0.81455095 4.26531339,0.27554692 6.34537037,0.27554692 L11.2064815,0.27554692 L11.2064815,2.93177893 L6.80106838,2.93177893 C5.59351852,2.93177893 4.78133903,3.10506621 4.36452991,3.45113702 C3.9477208,3.79771157 3.7238604,4.42335924 3.69245014,5.32858377 L11.2064815,5.32858377 L11.2064815,7.98481577 L3.69245014,7.98481577 C3.7238604,8.89810017 3.93226496,9.52173287 4.31766382,9.85621762 C4.70356125,10.1907024 5.52321937,10.3579447 6.77763533,10.3579447 L11.2064815,10.3579447 L11.2064815,13.0146805 L6.34537037,13.0146805" id="Fill-1" fill="#161616" mask="url(#mask-2)"></path>
                </g>
                <path d="M13.332906,4.80922568 L19.59651,4.80922568 C21.4896011,4.80922568 22.8407407,5.16940127 23.6514245,5.8892487 C24.4611111,6.60959988 24.866453,7.80397237 24.866453,9.47286989 L24.866453,17.5483592 L21.5359687,17.5483592 L21.5359687,9.8859384 C21.5359687,8.93336212 21.389886,8.31577432 21.0977208,8.03216753 C20.8055556,7.74906448 20.2197293,7.60700921 19.339245,7.60700921 L16.6633903,7.60700921 L16.6633903,17.5483592 L13.332906,17.5483592 L13.332906,4.80922568" id="Fill-4" fill="#161616"></path>
                <path d="M33.3148148,17.5483592 C31.2272792,17.5483592 29.647792,17.0108664 28.5763533,15.9368883 C27.5054131,14.8624064 26.969943,13.2781376 26.969943,11.1845855 C26.969943,9.09103339 27.5074074,7.50474957 28.5823362,6.42674151 C29.657265,5.34822971 31.2347578,4.80922568 33.3148148,4.80922568 L38.1759259,4.80922568 L38.1759259,7.46545769 L33.7705128,7.46545769 C32.562963,7.46545769 31.7512821,7.63874496 31.3344729,7.98481577 C30.9176638,8.33139033 30.6933048,8.957038 30.6623932,9.86226252 L38.1759259,9.86226252 L38.1759259,12.5184945 L30.6623932,12.5184945 C30.6933048,13.4317789 30.9017094,14.0554116 31.2876068,14.3898964 C31.6730057,14.7243811 32.4931624,14.8916235 33.7470798,14.8916235 L38.1759259,14.8916235 L38.1759259,17.5483592 L33.3148148,17.5483592" id="Fill-5" fill="#161616"></path>
                <path d="M40.302849,4.80922568 L45.9003561,4.80922568 C47.2086182,4.80922568 48.1259972,5.04699194 48.6519943,5.52353195 C49.1779915,5.99956822 49.4407407,6.83175014 49.4407407,8.02058146 L49.4407407,10.1458693 L46.2623219,10.1458693 L46.2623219,8.50467761 C46.2623219,8.00849165 46.1745726,7.67602188 45.9995726,7.50676454 C45.8240741,7.3375072 45.4247151,7.25287853 44.8014957,7.25287853 L43.6333333,7.25287853 L43.6333333,17.5483592 L40.302849,17.5483592 L40.302849,4.80922568" id="Fill-6" fill="#161616"></path>
                <path d="M58.298433,14.9152994 L60.0274929,14.9152994 L60.0274929,7.53648532 L58.298433,7.53648532 C57.4648148,7.53648532 56.8804843,7.56771733 56.5454416,7.63068509 C56.2103989,7.69365285 55.9182336,7.79994243 55.6689459,7.94955383 C55.1549145,8.26439263 54.7789886,8.67947611 54.5416667,9.195308 C54.3038462,9.71063615 54.1851852,10.3816206 54.1851852,11.2082614 C54.1851852,12.5698762 54.4848291,13.5279937 55.0846154,14.0831174 C55.6849003,14.6382412 56.7558405,14.9152994 58.298433,14.9152994 Z M63.3814103,17.087939 C63.3814103,18.8354203 62.9960114,20.1179476 62.2247151,20.9365285 C61.4534188,21.7551094 60.2498575,22.1646517 58.6140313,22.1646517 L52.0816952,22.1646517 L52.0816952,19.5789436 L58.0411681,19.5789436 C58.6798433,19.5789436 59.1709402,19.423791 59.5134615,19.1124784 C59.8564815,18.8016695 60.0274929,18.3513241 60.0274929,17.7609384 L60.0274929,17.5483592 L57.3167379,17.5483592 C55.914245,17.5483592 54.9056268,17.4420697 54.2903846,17.2294905 C53.6746439,17.0169113 53.1062678,16.6547208 52.5842593,16.1434226 C51.9844729,15.5686528 51.522792,14.8523316 51.1992165,13.9944588 C50.8761396,13.1365861 50.7146011,12.2076857 50.7146011,11.2082614 C50.7146011,10.2244531 50.8761396,9.30562752 51.1992165,8.45128094 C51.522792,7.59743811 51.9844729,6.88313184 52.5842593,6.30836212 C53.1217236,5.77338803 53.7529202,5.38953656 54.4773504,5.15731146 C55.2017806,4.92508636 56.1480769,4.80922568 57.3167379,4.80922568 L63.3814103,4.80922568 L63.3814103,17.087939 Z" id="Fill-7" fill="#161616"></path>
                <path d="M66.1509972,17.5483592 L69.6450142,17.5483592 L69.6450142,4.80922568 L66.1509972,4.80922568 L66.1509972,17.5483592 Z M66.1509972,3.35693725 L69.6450142,3.35693725 L69.6450142,0.192933218 L66.1509972,0.192933218 L66.1509972,3.35693725 Z" id="Fill-8" fill="#161616"></path>
                <path d="M78.1402422,17.5483592 C76.052208,17.5483592 74.4727208,17.0108664 73.4017806,15.9368883 C72.3303419,14.8624064 71.7948718,13.2781376 71.7948718,11.1845855 C71.7948718,9.09103339 72.3323362,7.50474957 73.407265,6.42674151 C74.4826923,5.34822971 76.0601852,4.80922568 78.1402422,4.80922568 L83.0013533,4.80922568 L83.0013533,7.46545769 L78.5959402,7.46545769 C77.3883903,7.46545769 76.5762108,7.63874496 76.1594017,7.98481577 C75.7425926,8.33139033 75.5187322,8.957038 75.4873219,9.86226252 L83.0013533,9.86226252 L83.0013533,12.5184945 L75.4873219,12.5184945 C75.5187322,13.4317789 75.7271368,14.0554116 76.1125356,14.3898964 C76.498433,14.7243811 77.3180912,14.8916235 78.5725071,14.8916235 L83.0013533,14.8916235 L83.0013533,17.5483592 L78.1402422,17.5483592" id="Fill-9" fill="#161616"></path>
                <path d="M93.482906,14.8210996 L93.482906,7.5601612 L91.4731481,7.5601612 C90.1254986,7.5601612 89.1692308,7.84527922 88.6043447,8.416019 C88.0394587,8.98675878 87.757265,9.93681635 87.757265,11.2671992 C87.757265,12.5582902 88.0160256,13.4730858 88.5340456,14.0120898 C89.0520655,14.5515976 89.9420228,14.8210996 91.204416,14.8210996 L93.482906,14.8210996 Z M96.8014245,17.5483592 L90.4096866,17.5483592 C88.4777066,17.5483592 86.9705128,16.9735895 85.8876068,15.8245538 C84.8047009,14.6755181 84.2632479,13.0736183 84.2632479,11.0193581 C84.2632479,10.1771013 84.3759259,9.40385723 84.6022792,8.69912205 C84.8281339,7.99489062 85.1706553,7.35161197 85.6303419,6.76878238 C86.1757835,6.06858089 86.8319088,5.56685377 87.5992165,5.26360104 C88.3665242,4.96085204 89.3776353,4.80922568 90.6315527,4.80922568 L93.482906,4.80922568 L93.482906,0.192933218 L96.8014245,0.192933218 L96.8014245,17.5483592 Z" id="Fill-10" fill="#5FB624"></path>
                <path d="M99.6996439,17.5483592 L103.193661,17.5483592 L103.193661,4.80922568 L99.6996439,4.80922568 L99.6996439,17.5483592 Z M99.6996439,3.35693725 L103.193661,3.35693725 L103.193661,0.192933218 L99.6996439,0.192933218 L99.6996439,3.35693725 Z" id="Fill-11" fill="#5FB624"></path>
                <path d="M106.067949,4.80922568 L111.665456,4.80922568 C112.974217,4.80922568 113.891595,5.04699194 114.417094,5.52353195 C114.943091,5.99956822 115.20584,6.83175014 115.20584,8.02058146 L115.20584,10.1458693 L112.027422,10.1458693 L112.027422,8.50467761 C112.027422,8.00849165 111.940171,7.67602188 111.764672,7.50676454 C111.589174,7.3375072 111.190313,7.25287853 110.567094,7.25287853 L109.398433,7.25287853 L109.398433,17.5483592 L106.067949,17.5483592 L106.067949,4.80922568" id="Fill-12" fill="#5FB624"></path>
                <path d="M122.941738,17.5483592 C120.853704,17.5483592 119.274217,17.0108664 118.203276,15.9368883 C117.132336,14.8624064 116.596368,13.2781376 116.596368,11.1845855 C116.596368,9.09103339 117.13433,7.50474957 118.209259,6.42674151 C119.284188,5.34822971 120.861681,4.80922568 122.941738,4.80922568 L127.802849,4.80922568 L127.802849,7.46545769 L123.397436,7.46545769 C122.189886,7.46545769 121.377707,7.63874496 120.960897,7.98481577 C120.544088,8.33139033 120.320228,8.957038 120.289316,9.86226252 L127.802849,9.86226252 L127.802849,12.5184945 L120.289316,12.5184945 C120.320228,13.4317789 120.528632,14.0554116 120.91453,14.3898964 C121.299929,14.7243811 122.120085,14.8916235 123.374003,14.8916235 L127.802849,14.8916235 L127.802849,17.5483592 L122.941738,17.5483592" id="Fill-13" fill="#5FB624"></path>
                <path d="M136.800641,14.8210996 L140.341026,14.8210996 L140.341026,17.5483592 L135.818946,17.5483592 C134.673718,17.5483592 133.732906,17.4284686 132.997009,17.1881836 C132.260613,16.9478987 131.619943,16.560521 131.074501,16.0250432 C130.49067,15.4427173 130.032977,14.732441 129.701923,13.8942142 C129.37037,13.0559873 129.204843,12.1683938 129.204843,11.2319372 C129.204843,10.248129 129.368875,9.32879965 129.69594,8.47495682 C130.023006,7.62111399 130.482692,6.90680771 131.074501,6.332038 C131.62792,5.7970639 132.276567,5.4091825 133.020442,5.16940127 C133.764316,4.92911629 134.697151,4.80922568 135.818946,4.80922568 L140.341026,4.80922568 L140.341026,7.5601612 L136.800641,7.5601612 C135.234615,7.5601612 134.155698,7.83369315 133.563889,8.38075705 C132.971581,8.92782096 132.675427,9.87787853 132.675427,11.2319372 C132.675427,12.0112263 132.796581,12.6565199 133.037892,13.1683218 C133.279202,13.67962 133.653134,14.0926885 134.159687,14.4075273 C134.408974,14.5571387 134.699145,14.6634283 135.030199,14.7263961 C135.361254,14.7893638 135.951567,14.8210996 136.800641,14.8210996" id="Fill-14" fill="#5FB624"></path>
                <path d="M141.287821,4.80922568 L143.63661,4.80922568 L143.63661,0.192933218 L146.966595,0.192933218 L146.966595,4.80922568 L150.484046,4.80922568 L150.484046,7.34758204 L146.966595,7.34758204 L146.966595,12.4953224 C146.966595,13.4398388 147.126638,14.0947035 147.445726,14.460924 C147.765313,14.8271445 148.322222,15.0100029 149.116952,15.0100029 L150.484046,15.0100029 L150.484046,17.5483592 L147.445726,17.5483592 C146.215242,17.5483592 145.272436,17.2037997 144.618305,16.5151842 C143.963675,15.8265688 143.63661,14.8407455 143.63661,13.5577145 L143.63661,7.34758204 L141.287821,7.34758204 L141.287821,4.80922568" id="Fill-15" fill="#5FB624"></path>
                <polygon id="Fill-16" fill="#5FB624" points="151.944872 17.5483592 154.81916 17.5483592 154.81916 14.5259067 151.944872 14.5259067"></polygon>
                <path d="M157.191382,4.80922568 L163.454986,4.80922568 C165.348077,4.80922568 166.699715,5.16940127 167.5099,5.8892487 C168.320085,6.60959988 168.724929,7.80397237 168.724929,9.47286989 L168.724929,17.5483592 L165.394444,17.5483592 L165.394444,9.8859384 C165.394444,8.93336212 165.248362,8.31577432 164.956197,8.03216753 C164.66453,7.74906448 164.078205,7.60700921 163.197721,7.60700921 L160.521866,7.60700921 L160.521866,17.5483592 L157.191382,17.5483592 L157.191382,4.80922568" id="Fill-17" fill="#5FB624"></path>
                <polygon id="Fill-18" fill="#5FB624" points="171.505983 17.5483592 174.976567 17.5483592 174.976567 0.192933218 171.505983 0.192933218"></polygon>
            </g>
        </g>
    </g>
</svg>